<?xml version="1.0" standalone="no"?>
<!DOCTYPE svg PUBLIC "-//W3C//DTD SVG 20010904//EN"
 "http://www.w3.org/TR/2001/REC-SVG-20010904/DTD/svg10.dtd">
<svg version="1.0" xmlns="http://www.w3.org/2000/svg"
 width="200.000000pt" height="200.000000pt" viewBox="0 0 200.000000 200.000000"
 preserveAspectRatio="xMidYMid meet">

<g transform="translate(0.000000,200.000000) scale(0.100000,-0.100000)"
fill="#000000" stroke="none">
<path d="M875 1930 c-31 -12 -42 -29 -58 -93 -15 -57 -15 -61 9 -123 l24 -64
-40 0 c-23 0 -57 -7 -78 -15 -44 -19 -122 -92 -122 -115 0 -9 16 -31 35 -50
32 -31 35 -39 35 -91 0 -67 3 -69 100 -69 58 0 70 3 82 22 13 20 18 2 61 -217
41 -213 49 -241 73 -266 15 -16 34 -29 41 -29 7 0 20 -14 28 -30 30 -58 65
-70 205 -70 140 0 162 7 197 59 13 19 37 41 54 49 16 8 36 27 44 41 11 22 85
380 102 492 5 36 6 37 42 32 62 -8 119 14 177 69 30 28 54 55 54 59 0 5 -14
24 -30 43 -41 46 -123 86 -176 86 l-43 0 25 63 c23 57 24 66 14 116 -16 73
-57 116 -102 107 -42 -8 -62 -28 -77 -74 -20 -66 -32 -75 -83 -62 -47 12 -373
9 -418 -4 -21 -6 -27 -2 -42 26 -9 18 -19 43 -23 55 -7 27 -51 63 -74 62 -9 0
-25 -4 -36 -9z m51 -77 c3 -10 15 -35 26 -55 10 -21 15 -38 10 -38 -6 0 -20
-11 -33 -25 -13 -13 -27 -25 -31 -25 -23 0 -32 119 -12 152 9 14 35 8 40 -9z
m740 -28 c9 -32 8 -48 -4 -81 l-15 -41 -33 33 -33 33 22 50 c26 61 47 63 63 6z
m-396 -268 c0 -210 6 -246 47 -290 41 -43 73 -56 163 -66 45 -5 83 -11 85 -13
7 -6 -27 -178 -34 -178 -4 0 -20 14 -37 31 -16 17 -51 43 -79 57 -44 23 -62
26 -150 25 -112 0 -144 -10 -215 -67 l-45 -36 -6 28 c-4 23 3 35 51 82 70 68
95 127 87 203 -3 28 -33 123 -67 211 -33 87 -60 162 -60 166 0 15 107 38 183
39 l77 1 0 -193z m216 172 c80 -24 104 -47 104 -98 0 -21 6 -46 14 -56 13 -19
15 -19 69 0 48 16 61 17 96 6 22 -6 53 -23 68 -36 l28 -25 -30 -25 c-46 -39
-98 -50 -154 -31 -56 18 -71 9 -71 -45 0 -33 -14 -120 -25 -155 -2 -7 -28 -8
-81 -2 -165 17 -168 22 -172 286 l-3 202 44 0 c25 0 76 -9 113 -21z m-486
-180 c22 -57 40 -107 40 -111 0 -4 -18 -13 -40 -19 -34 -10 -39 -15 -34 -33
10 -34 20 -39 55 -27 46 16 47 15 55 -24 4 -24 1 -51 -10 -79 -17 -45 -71
-105 -83 -93 -11 11 -52 217 -52 263 -1 47 -19 61 -53 43 -11 -6 -21 -9 -22
-7 -2 2 -17 24 -35 51 -37 55 -62 60 -88 17 -18 -32 -28 -37 -38 -19 -11 17
35 58 78 71 32 10 47 9 92 -7 67 -22 85 -12 85 48 0 22 2 38 5 35 4 -3 24 -52
45 -109z m-200 -147 c0 -30 -2 -33 -27 -30 -35 4 -42 37 -17 75 16 25 17 26
30 8 8 -10 14 -34 14 -53z m584 -357 c18 -9 56 -40 85 -69 47 -47 52 -56 42
-75 -7 -11 -17 -21 -24 -21 -7 -1 -106 -1 -221 -1 -183 0 -210 2 -227 17 -34
30 -23 56 44 105 34 26 69 49 77 52 35 13 193 7 224 -8z m16 -250 c-18 -21
-227 -22 -256 0 -17 13 -4 14 125 15 126 0 142 -2 131 -15z"/>
<path d="M1436 1408 c-9 -34 -9 -34 35 -47 43 -13 53 -9 63 25 5 17 0 23 -33
32 -52 16 -58 15 -65 -10z"/>
<path d="M1112 965 c-10 -22 -9 -26 19 -41 17 -8 32 -14 34 -12 8 10 26 50 23
53 -9 7 -48 25 -56 25 -5 0 -14 -11 -20 -25z"/>
<path d="M1373 978 c-21 -10 -21 -12 -7 -39 14 -28 15 -29 44 -14 27 14 28 18
18 40 -12 27 -21 29 -55 13z"/>
<path d="M230 1783 c-94 -149 -93 -356 2 -505 25 -40 33 -46 48 -38 31 17 32
27 1 77 -81 132 -79 314 5 436 25 37 25 39 8 58 -9 10 -21 19 -26 19 -4 0 -21
-21 -38 -47z"/>
<path d="M336 1718 c-69 -105 -70 -258 -4 -365 22 -37 25 -38 52 -18 19 14 19
16 -9 72 -41 79 -41 166 -1 248 28 56 28 59 11 72 -25 18 -32 17 -49 -9z"/>
<path d="M426 1620 c-20 -50 -21 -130 -2 -175 16 -38 30 -43 57 -19 15 14 16
18 3 42 -17 33 -17 87 0 127 11 27 10 32 -10 47 -12 10 -24 18 -27 18 -3 0
-12 -18 -21 -40z"/>
<path d="M190 1121 c-52 -10 -86 -37 -110 -85 -19 -40 -20 -60 -20 -442 0
-395 0 -400 23 -444 16 -33 34 -51 67 -67 l44 -23 806 0 806 0 44 23 c33 16
51 34 67 67 23 44 23 49 23 444 0 384 -1 401 -21 442 -28 58 -69 82 -157 90
l-72 7 0 -37 0 -36 65 0 c57 0 69 -3 90 -25 l25 -24 0 -416 0 -416 -25 -24
-24 -25 -821 0 -821 0 -24 25 -25 24 0 416 0 416 25 24 24 25 331 0 330 0 0
35 0 35 -307 -1 c-170 -1 -324 -4 -343 -8z"/>
<path d="M255 987 c-3 -6 -4 -188 -3 -402 l3 -390 775 0 775 0 0 400 0 400
-57 3 -58 3 0 -31 c0 -27 3 -30 30 -30 l30 0 0 -345 0 -345 -720 0 -720 0 0
345 0 345 265 0 265 0 0 30 0 30 -290 0 c-224 0 -292 -3 -295 -13z"/>
<path d="M716 814 c-24 -25 -26 -32 -26 -121 0 -86 -2 -98 -25 -124 -67 -81
-44 -193 49 -239 52 -25 79 -25 133 0 92 41 120 166 53 238 -16 17 -20 35 -20
94 0 131 -27 178 -101 178 -26 0 -44 -8 -63 -26z m92 -143 c3 -100 4 -105 32
-131 24 -22 30 -36 30 -69 0 -57 -33 -91 -90 -91 -86 0 -123 95 -60 155 29 28
30 31 30 130 0 56 3 105 7 109 4 4 16 6 28 4 18 -3 20 -11 23 -107z"/>
<path d="M770 595 c0 -52 -5 -72 -21 -95 -21 -28 -21 -30 -5 -54 20 -31 46
-33 71 -5 18 19 18 22 2 52 -9 18 -18 61 -19 96 -2 41 -8 66 -15 69 -10 3 -13
-14 -13 -63z m28 -127 c-6 -18 -28 -21 -28 -4 0 9 7 16 16 16 9 0 14 -5 12
-12z"/>
<path d="M580 720 c0 -20 5 -30 15 -30 10 0 15 10 15 30 0 20 -5 30 -15 30
-10 0 -15 -10 -15 -30z"/>
<path d="M436 681 c-3 -4 5 -18 18 -30 29 -27 47 -10 20 20 -19 21 -30 24 -38
10z"/>
<path d="M550 647 c-94 -32 -107 -177 -20 -222 44 -23 60 -19 60 13 0 21 -7
32 -25 40 -32 15 -42 55 -21 87 9 14 23 25 31 25 10 0 15 11 15 35 0 19 -1 35
-2 34 -2 0 -19 -5 -38 -12z"/>
<path d="M160 596 c0 -33 2 -36 31 -36 28 0 30 2 27 33 -2 27 -8 33 -30 35
-26 3 -28 1 -28 -32z"/>
<path d="M1037 624 c-4 -4 -7 -20 -7 -36 l0 -28 206 0 205 0 -3 33 -3 32 -196
3 c-107 1 -198 -1 -202 -4z"/>
<path d="M1500 595 l0 -36 63 3 c62 3 62 3 62 33 0 30 0 30 -62 33 l-63 3 0
-36z"/>
<path d="M377 543 c-15 -15 -5 -23 28 -23 24 0 35 5 35 15 0 15 -50 22 -63 8z"/>
<path d="M1030 470 l0 -30 175 0 175 0 0 30 0 30 -175 0 -175 0 0 -30z"/>
<path d="M1440 470 l0 -30 95 0 95 0 0 30 0 30 -95 0 -95 0 0 -30z"/>
<path d="M451 406 c-16 -17 -19 -26 -11 -31 17 -10 57 32 44 45 -7 7 -17 3
-33 -14z"/>
<path d="M580 346 c0 -26 4 -36 16 -36 11 0 14 8 12 32 -4 46 -28 49 -28 4z"/>
<path d="M1037 373 c-4 -3 -7 -19 -7 -35 l0 -28 298 2 297 3 0 30 0 30 -291 3
c-160 1 -293 -1 -297 -5z"/>
</g>
</svg>
