<?xml version="1.0" encoding="utf-8"?>
<!-- Generator: Adobe Illustrator 27.5.0, SVG Export Plug-In . SVG Version: 6.00 Build 0)  -->
<svg version="1.1" xmlns="http://www.w3.org/2000/svg" xmlns:xlink="http://www.w3.org/1999/xlink" x="0px" y="0px"
	 viewBox="0 0 500 500" style="enable-background:new 0 0 500 500;" xml:space="preserve">
<g id="BACKGROUND">
	<radialGradient id="SVGID_1_" cx="250" cy="250" r="368.8625" gradientUnits="userSpaceOnUse">
		<stop  offset="0" style="stop-color:#FFFFFF"/>
		<stop  offset="0.397" style="stop-color:#FDFDFD"/>
		<stop  offset="0.5688" style="stop-color:#F6F6F6"/>
		<stop  offset="0.6971" style="stop-color:#E9E9E9"/>
		<stop  offset="0.8039" style="stop-color:#D7D7D7"/>
		<stop  offset="0.8971" style="stop-color:#C0C0C0"/>
		<stop  offset="0.9797" style="stop-color:#A4A4A4"/>
		<stop  offset="1" style="stop-color:#9C9C9C"/>
	</radialGradient>
	<rect style="fill:url(#SVGID_1_);" width="500" height="500"/>
</g>
<g id="OBJECTS">
	<g>
		<g>
			
				<text transform="matrix(1 0 0 1 131.4786 387.5285)" style="fill:#4F4F4F; font-family:'Raleway-ExtraBoldItalic'; font-size:57.749px; letter-spacing:1;">EXPRESS</text>
			
				<text transform="matrix(1 0 0 1 253.3211 411.0855)" style="fill:#F5832B; font-family:'Raleway-MediumItalic'; font-size:22px; letter-spacing:4;">DELIVERY </text>
		</g>
		<g>
			<g>
				<path style="fill:#F5832B;" d="M350.591,164.725c-5.966-17.917-16.448-33.074-29.743-44.673l4.305-5.215l1.841,1.52
					c1.704,1.407,3.19,1.582,4.363,0.161l3.052-3.698c1.172-1.421,0.811-2.958-0.893-4.365l-16.374-13.515
					c-1.704-1.407-3.007-1.243-4.18,0.178l-3.052,3.698c-1.172,1.42-0.994,2.619,0.71,4.026l2.117,1.747l-4.659,5.644l1.774,1.465
					c-14.373-9.477-31.026-15.329-48.415-16.717l-0.213-9.388l3.179-0.072c2.944-0.067,4.594-1.185,4.538-3.638l-0.145-6.387
					c-0.056-2.453-1.759-3.688-4.703-3.621l-28.278,0.643c-2.944,0.067-4.114,1.367-4.058,3.82l0.145,6.387
					c0.056,2.453,1.279,3.506,4.223,3.439l3.655-0.083l0.215,9.483c-6.321,0.838-12.652,2.258-18.921,4.344
					c-9.341,3.11-17.916,7.466-25.649,12.786l-3.717-5.087l1.927-1.409c1.784-1.304,2.321-2.701,1.234-4.188l-2.829-3.872
					c-1.087-1.487-2.666-1.517-4.45-0.213l-17.143,12.526c-1.784,1.304-1.947,2.607-0.861,4.094l2.829,3.872
					c1.087,1.487,2.292,1.611,4.077,0.307l2.216-1.619l4.195,5.741c-27.841,26.532-39.58,67.737-26.649,106.579
					c14.577,43.784,56.039,71.206,99.952,70.035c11.104-0.296,22.37-2.423,33.392-6.573c23.116-8.705,42.4-25.606,54.061-47.381
					C357.094,220.423,359.539,191.603,350.591,164.725z M334.72,237.297l-7.84-4.157c-1.013-0.541-2.283-0.092-2.723,0.997
					c-0.382,0.944,0.097,2.024,0.996,2.501l7.755,4.112c-6.877,12.543-16.446,23.075-27.978,31.004
					c-0.767,1.329-2.124,2.165-3.82,2.505c-5.914,3.64-12.282,6.636-19.035,8.884c-7.078,2.356-14.241,3.773-21.364,4.346
					l-0.017-0.319c-1.298,0.14-2.608,0.161-3.898,0.136l0.022,0.415c-0.31,0.011-0.62,0.033-0.93,0.042
					c-14.16,0.376-28.026-2.618-40.567-8.431l3.694-7.444c0.454-0.914,0.211-2.074-0.652-2.617
					c-0.992-0.624-2.282-0.242-2.791,0.781l-3.755,7.567c-12.54-6.476-23.583-15.855-32.029-27.582l6.827-4.626
					c0.843-0.571,1.202-1.697,0.719-2.594c-0.556-1.033-1.867-1.341-2.815-0.696l-6.943,4.705
					c-4.214-6.421-7.684-13.473-10.221-21.096c-2.057-6.178-3.394-12.423-4.086-18.648l8.185-0.664
					c1.005-0.081,1.859-0.876,1.889-1.883c0.034-1.182-0.937-2.123-2.107-2.011l-8.325,0.676
					c-0.975-14.448,1.587-28.683,7.103-41.622l7.512,3.477c0.265,0.122,0.544,0.18,0.818,0.18c0.865,0,1.686-0.579,1.908-1.532
					c0.211-0.906-0.312-1.829-1.156-2.219l-7.473-3.459c6.09-12.749,15.122-24.072,26.548-32.867l4.908,6.836
					c0.381,0.531,0.979,0.813,1.586,0.813c0.404,0,0.814-0.126,1.164-0.387c0.869-0.647,0.979-1.919,0.347-2.799l-4.867-6.779
					c7.039-4.947,14.776-8.979,23.348-11.832c8.094-2.695,15.47-4.207,24.567-4.583v8.596c0,1.077,1.197,1.95,2.274,1.95
					c1.077,0,2.274-0.873,2.274-1.95v-8.663c11.825-0.025,27.618,3.169,40.46,9.596c0.488,0.244,0.852,0.513,1.335,0.765
					l-4.35,7.602c-0.529,0.938-0.226,2.127,0.712,2.657c0.304,0.171,0.62,0.252,0.945,0.252c0.68,0,1.334-0.356,1.693-0.99
					l4.321-7.648c12.582,7.266,23.065,17.275,30.786,29.287l-7.53,4.53c-0.879,0.529-1.295,1.647-0.847,2.571
					c0.344,0.71,1.042,1.106,1.76,1.106c0.342,0,0.688-0.09,1.003-0.279l7.642-4.598c3.147,5.395,5.773,11.147,7.792,17.212
					c2.581,7.754,4.066,15.69,4.519,23.635l-8.932,0.323c-1.284,0.034-2.244,1.101-1.778,2.513c0.262,0.792,1.027,1.316,1.861,1.316
					h0.021l8.97-0.195C344.276,210.048,341.12,224.363,334.72,237.297z"/>
				<path style="fill:#F5832B;" d="M252.863,124.114l-4.536,72.499l-38.598-31.354l36.007,41.944
					c1.126,1.311,2.768,2.066,4.496,2.066h1.673c3.419,0,6.129-2.885,5.914-6.298L252.863,124.114z"/>
			</g>
		</g>
		<g>
			<line style="fill:#FFFFFF;" x1="160.956" y1="325.003" x2="158.958" y2="324.42"/>
			<path style="fill:none;" d="M366.054,305.314h-12.313c0.057,0,0.096,1.265,0.096,1.658c0,4.513-3.874,8.674-8.654,8.674
				c-4.779,0-8.654-3.993-8.654-8.507c0-0.393,0.04-1.826,0.096-1.826h-10.935c0.008,0,0.015,0.675,0.015,0.675
				c1.953,10.411,10.329,18.515,21.955,18.48c5.024-0.015,10.065-2.32,13.476-5.89c1.724-1.805,2.936-4.285,3.694-6.598
				C364.979,311.53,366.612,305.314,366.054,305.314z"/>
			<path style="fill:none;" d="M194.021,312.689c0,4.513-3.874,8.548-8.654,8.548c-4.779,0-8.654-3.909-8.654-8.422
				c0-0.455,0.049-1.835,0.125-1.835H165.24c2.039,10.387,10.365,18.061,21.899,18.026c5.024-0.015,10.066-1.776,13.476-5.346
				c1.724-1.805,2.936-4.202,3.694-6.514c0.127-0.385,1.331-5.222,1.335-6.166h-11.748
				C193.972,310.98,194.021,312.234,194.021,312.689z"/>
			<path style="fill:#FFFFFF;" d="M146.054,255.817l0.036-0.144c-0.37,0.596-0.716,1.201-1.051,1.81l0.014-0.001
				C145.394,256.924,145.725,256.369,146.054,255.817z"/>
			<path style="fill:#FFFFFF;" d="M138.332,291.238c-0.033-1.05-0.054-2.166-0.053-3.333l-0.257-0.01l-1.75,6.987
				C137.542,294.307,138.394,293.241,138.332,291.238z"/>
			<path style="fill:#FFFFFF;" d="M141.906,265.039l-0.152-0.006c-0.571,1.708-1.042,3.421-1.434,5.114l0.022-0.001
				C140.799,268.45,141.253,266.743,141.906,265.039z"/>
			<path style="fill:#FFFFFF;" d="M135.118,299.495c0,0,0.145-0.045,0.366-0.166c-0.107-0.004-0.214-0.008-0.321-0.013
				L135.118,299.495z"/>
			<polygon style="fill:#FFFFFF;" points="159.165,324.159 160.264,325.024 160.956,325.003 			"/>
			<path style="fill:#FFFFFF;" d="M165.118,330.574c-0.412-0.432-0.815-0.873-1.205-1.327
				C164.386,329.853,164.819,330.35,165.118,330.574z"/>
			<path style="fill:#FFFFFF;" d="M172.03,335.975c-0.914-0.525-1.793-1.104-2.649-1.718
				C170.298,334.983,171.225,335.626,172.03,335.975z"/>
			<g>
				<path style="fill:#4F4F4F;" d="M381.003,304.347c3.128-43.973-48.637-61.412-48.637-61.412
					c-8-22.672-27.197-32.848-28.916-33.683c-0.304-0.286-0.148-1.001,0.301-1.031l2.459-0.269c3.033-0.201,5.343-2.145,5.964-4.717
					c1.15-4.762,2.082-12.835-1.502-21.031c-1.025-2.343-3.566-3.791-6.244-3.613l-18.564,1.222
					c-4.151,0.275-8.168,1.496-11.706,3.564l-16.923,9.89c-1.557,0.91-2.452,2.56-2.324,4.285c0,0,0.334,4.501,0.335,4.516
					c0.066,0.977-8.958,2.084-9.948,2.522c-4.242,1.879-5.099,8.493,0.484,9.213c2.765,0.357,4.721-1.41,6.819-2.757
					c2.142-1.375,4.525-2.549,6.792-3.743c5.086-2.677,10.309-5.115,15.405-7.775c1.07-0.558,1.639-1.626,1.778-2.773
					c0.222-1.837,2.9-2.229,3.68-0.522c0.545,1.194,0.589,2.641-0.653,4.221l-17.797,9.163c-0.731,0.376-0.74,1.347-0.031,1.758
					c7.512,4.351,13.974,10.519,18.756,17.483c7.118,10.367,12.961,24.186,9.201,36.795c-3.634,12.183-16.478,21.243-29.861,21.243
					c-17.376,0-31.462-13.973-31.462-31.209c0-7.076,2.379-12.444,6.385-17.67c3.025-3.948,0.033-8.243-5.207-8.243h-56.773
					c-8.057,0-18.269,3.733-18.269,11.169v4.942c-5,3.521-6.977,7.472-9.493,11.599l-95.235,3.853l92.088,3.704
					c-0.653,1.704-1.107,3.411-1.563,5.106l-78.911,3.182l77.656,3.129c-0.333,2.161-0.534,4.264-0.659,6.274l-64.256,2.59
					l64.106,2.584c-0.001,1.167,0.02,2.283,0.053,3.333c0.159,5.116-5.61,4.171-9.217,4.316c-4.85,0.196-9.699,0.391-14.549,0.587
					c-9.699,0.391-19.399,0.782-29.098,1.173c16.722,0.673,33.443,1.346,50.163,2.021c-2.439-0.09-0.79,18.913-0.258,20.573
					c0.668,2.089,1.174,2.419,3.174,0.5v-0.156c3-5.799,11.662-6.774,18.979-7.871l0.039,0.766c-0.017,0.69,0.089,1.137,0.173,1.823
					c0.109,1.381,0.453,2.727,0.771,4.081c0.599,2.055,1.419,4.056,2.448,5.951l-61.912,1.888l64.534,1.967
					c0.487,0.599,1.011,1.161,1.54,1.716l-53.366,1.627l57.18,1.743c0.992,0.738,2.025,1.415,3.098,2.031l-50.398,1.536
					l58.539,1.785c8.196,2.141,17.266,1.275,24.913-3.184c4.042-2.356,7.164-5.38,9.428-8.381c3.242-4.297,5.319-9.794,5.86-15.051
					c0.115-1.118,0.142-1.701,0.142-1.701h-0.091c-0.016-4.721-0.295-6.301-0.792-8.845c24.656-0.001,51.792-0.5,76.291-0.502
					c-0.029,0.558-0.051,0.869-0.055,1.432c-0.003,0.441,0.031,1.048,0.043,1.048c0.099,3.997-0.748,7.136,0.297,10.402
					c0.668,2.089,1.341,2.419,3.341,0.5v-0.125c2-5.784,11.078-6.744,18.561-7.832l0.01,1.092c-0.017,0.69,0.074,1.137,0.157,1.823
					c0.109,1.381,0.445,2.727,0.763,4.081c0.666,2.287,1.611,4.503,2.816,6.584c0,0,2.156,3.659,3.906,5.266
					c0.129,0.101,0.253,0.201,0.352,0.299c0,0,2.93,2.444,5.202,4.048c0.741,0.474,1.495,0.931,2.272,1.339
					c1.417,0.38,3.373,3.141,11.358,3.639l1.298,0.04c6.594,0.597,13.41-0.684,19.362-4.154c4.042-2.356,7.165-5.38,9.429-8.381
					c3.242-4.297,5.32-9.458,5.86-14.715c0.115-1.119,0.143-1.366,0.143-1.366s-0.023-1.17-0.032-1.583
					C381.002,304.992,380.995,304.347,381.003,304.347z M204.309,317.146c-0.759,2.312-1.97,4.709-3.694,6.514
					c-3.41,3.57-8.452,5.331-13.476,5.346c-11.534,0.035-19.86-7.639-21.899-18.026h11.599c-0.076,0-0.125,1.38-0.125,1.835
					c0,4.513,3.875,8.422,8.654,8.422c4.779,0,8.654-4.035,8.654-8.548c0-0.455-0.049-1.709-0.125-1.709h11.748
					C205.64,311.924,204.436,316.761,204.309,317.146z M364.831,311.981c-0.759,2.312-1.97,4.793-3.694,6.598
					c-3.41,3.57-8.452,5.875-13.476,5.89c-11.627,0.035-20.002-8.069-21.955-18.48c0,0-0.007-0.675-0.015-0.675h10.935
					c-0.057,0-0.096,1.432-0.096,1.826c0,4.513,3.874,8.507,8.654,8.507c4.779,0,8.654-4.161,8.654-8.674
					c0-0.393-0.039-1.658-0.096-1.658h12.313C366.612,305.314,364.979,311.53,364.831,311.981z"/>
			</g>
			<path style="fill:none;" d="M326.112,326.204c-0.099-0.098-0.223-0.198-0.352-0.299
				C325.879,326.015,325.997,326.116,326.112,326.204z"/>
			<path style="fill:none;" d="M194.021,312.689c0,4.513-3.874,8.548-8.654,8.548c-4.779,0-8.654-3.909-8.654-8.422
				c0-0.455,0.049-1.835,0.125-1.835H165.24c2.039,10.387,10.365,18.061,21.899,18.026c5.024-0.015,10.066-1.776,13.476-5.346
				c1.724-1.805,2.936-4.202,3.694-6.514c0.127-0.385,1.331-5.222,1.335-6.166h-11.748
				C193.972,310.98,194.021,312.234,194.021,312.689z"/>
			<path style="fill:none;" d="M333.586,331.591c-0.777-0.408-1.531-0.865-2.272-1.339
				C332.284,330.936,333.136,331.47,333.586,331.591z"/>
			<path style="fill:none;" d="M366.054,305.314h-12.313c0.057,0,0.096,1.265,0.096,1.658c0,4.513-3.874,8.674-8.654,8.674
				c-4.779,0-8.654-3.993-8.654-8.507c0-0.393,0.04-1.826,0.096-1.826h-10.935c0.008,0,0.015,0.675,0.015,0.675
				c1.953,10.411,10.329,18.515,21.955,18.48c5.024-0.015,10.065-2.32,13.476-5.89c1.724-1.805,2.936-4.285,3.694-6.598
				C364.979,311.53,366.612,305.314,366.054,305.314z"/>
			<g>
				<path style="fill:#F5832B;" d="M172.03,335.975l-50.398,1.536l56.7,1.729l-0.928-0.73
					C175.101,337.689,173.79,336.741,172.03,335.975z"/>
				<path style="fill:#F5832B;" d="M49.818,261.336l91.936,3.698c0.854-2.554,1.933-5.096,3.285-7.551L49.818,261.336z"/>
				<path style="fill:#F5832B;" d="M129.115,295.554c-4.85,0.196-9.699,0.391-14.549,0.587c-9.699,0.391-19.399,0.782-29.098,1.173
					c16.566,0.667,33.131,1.334,49.695,2.002l1.11-4.434C134.3,295.774,131.31,295.466,129.115,295.554z"/>
				<path style="fill:#F5832B;" d="M160.264,325.024l-61.22,1.867l64.534,1.967c0.108,0.133,0.224,0.259,0.336,0.389
					c-0.744-0.954-1.589-2.18-2.185-3.071L160.264,325.024z"/>
				<path style="fill:#F5832B;" d="M111.752,332.201l57.18,1.743c0.146,0.109,0.3,0.207,0.449,0.314
					c-1.776-1.404-3.516-3.125-4.262-3.684L111.752,332.201z"/>
				<path style="fill:#F5832B;" d="M140.32,270.147l-78.889,3.181l77.656,3.129c-0.333,2.161-0.534,4.264-0.659,6.274l-64.256,2.59
					l63.85,2.573l0.432-1.724C138.573,281.755,138.95,276.072,140.32,270.147z"/>
				<path style="fill:#F5832B;" d="M279.591,333.237l65.353,1.992c-7.984-0.497-9.94-3.258-11.358-3.639L279.591,333.237z"/>
				<path style="fill:#F5832B;" d="M256.904,322.616l67.642,2.065v-0.058c0,0.435,0.681,0.867,1.214,1.282
					c-1.75-1.607-3.906-5.266-3.906-5.266L256.904,322.616z"/>
				<path style="fill:#F5832B;" d="M269.665,327.927l60.916,1.856c0.24,0.162,0.489,0.313,0.733,0.469
					c-2.272-1.603-5.202-4.048-5.202-4.048L269.665,327.927z"/>
			</g>
		</g>
	</g>
</g>
<g id="DESIGNED_BY_FREEPIK">
	<g>
		<g>
			<path style="fill:#9C9C9C;" d="M175.869,472.596c-0.14-0.17-0.34-0.25-0.61-0.25c-0.27,0-0.47,0.09-0.62,0.27
				c-0.14,0.19-0.21,0.46-0.21,0.82v2.6c-0.33-0.359-0.67-0.63-1.02-0.809c-0.35-0.17-0.77-0.26-1.28-0.26
				c-0.87,0-1.58,0.31-2.12,0.92c-0.53,0.62-0.8,1.47-0.8,2.57c0,0.52,0.07,1,0.2,1.449c0.14,0.45,0.33,0.841,0.6,1.17
				c0.26,0.33,0.57,0.58,0.93,0.761c0.35,0.18,0.74,0.27,1.16,0.27c0.32,0,0.62-0.05,0.88-0.14c0.27-0.08,0.52-0.21,0.75-0.38
				c0.23-0.17,0.46-0.391,0.7-0.66v0.17c0,0.32,0.08,0.57,0.23,0.75c0.16,0.17,0.36,0.26,0.6,0.26c0.24,0,0.44-0.09,0.6-0.25
				c0.15-0.17,0.23-0.42,0.23-0.76v-7.75C176.089,473.016,176.019,472.766,175.869,472.596z M174.099,479.766
				c-0.15,0.33-0.35,0.58-0.61,0.74c-0.25,0.16-0.54,0.24-0.84,0.24c-0.31,0-0.59-0.091-0.85-0.261c-0.26-0.17-0.46-0.42-0.61-0.75
				c-0.14-0.34-0.22-0.739-0.22-1.22c0-0.45,0.07-0.85,0.21-1.19c0.14-0.34,0.34-0.6,0.59-0.779c0.25-0.181,0.54-0.28,0.86-0.28
				c0.31,0,0.6,0.09,0.86,0.27c0.26,0.181,0.46,0.441,0.61,0.771c0.16,0.34,0.23,0.74,0.23,1.21
				C174.329,479.016,174.259,479.426,174.099,479.766z"/>
			<path style="fill:#9C9C9C;" d="M182.919,479.685c-0.17,0-0.3,0.04-0.39,0.12c-0.22,0.2-0.4,0.37-0.53,0.49
				c-0.14,0.12-0.29,0.23-0.45,0.34c-0.17,0.1-0.33,0.18-0.51,0.229c-0.17,0.051-0.36,0.07-0.57,0.07c-0.32,0-0.6-0.08-0.86-0.229
				c-0.26-0.15-0.47-0.381-0.63-0.69c-0.16-0.3-0.24-0.66-0.24-1.05h3.44c0.46,0,0.81-0.07,1.07-0.2c0.25-0.13,0.38-0.42,0.38-0.86
				c0-0.479-0.13-0.939-0.37-1.4c-0.24-0.46-0.61-0.84-1.11-1.13c-0.49-0.29-1.08-0.431-1.76-0.431c-0.53,0-1.01,0.08-1.44,0.25
				c-0.44,0.17-0.8,0.42-1.1,0.73c-0.29,0.32-0.52,0.7-0.67,1.149c-0.16,0.44-0.24,0.921-0.24,1.44c0,1.1,0.32,1.98,0.94,2.62
				c0.63,0.64,1.51,0.97,2.64,0.97c0.49,0,0.93-0.07,1.31-0.2c0.38-0.13,0.69-0.29,0.94-0.479c0.25-0.2,0.44-0.4,0.57-0.611
				c0.12-0.22,0.18-0.399,0.18-0.56c0-0.181-0.05-0.32-0.16-0.42C183.239,479.735,183.099,479.685,182.919,479.685z
				 M179.249,476.615c0.28-0.3,0.64-0.449,1.08-0.449c0.46,0,0.83,0.149,1.11,0.449c0.28,0.301,0.44,0.75,0.49,1.351h-3.19
				C178.799,477.376,178.969,476.926,179.249,476.615z"/>
			<path style="fill:#9C9C9C;" d="M189.919,478.945c-0.18-0.25-0.44-0.47-0.79-0.649c-0.34-0.19-0.79-0.351-1.33-0.481
				c-0.46-0.109-0.82-0.21-1.08-0.28c-0.27-0.079-0.47-0.18-0.63-0.3c-0.15-0.109-0.23-0.27-0.23-0.45c0-0.199,0.1-0.369,0.31-0.51
				c0.22-0.13,0.48-0.2,0.8-0.2c0.31,0,0.55,0.051,0.73,0.16c0.18,0.101,0.34,0.24,0.47,0.41c0.16,0.2,0.31,0.36,0.43,0.46
				c0.13,0.101,0.28,0.16,0.46,0.16c0.25,0,0.45-0.07,0.58-0.2c0.14-0.13,0.2-0.29,0.2-0.49c0-0.189-0.06-0.38-0.19-0.569
				c-0.12-0.19-0.31-0.37-0.55-0.53c-0.24-0.16-0.54-0.28-0.91-0.38c-0.36-0.09-0.77-0.14-1.22-0.14c-0.58,0-1.08,0.09-1.49,0.279
				c-0.41,0.19-0.72,0.44-0.93,0.75c-0.21,0.311-0.309,0.65-0.309,1c0,0.391,0.11,0.73,0.34,1c0.23,0.27,0.53,0.49,0.91,0.65
				c0.38,0.16,0.87,0.32,1.48,0.47c0.53,0.13,0.92,0.271,1.15,0.41c0.24,0.14,0.35,0.37,0.35,0.67c0,0.21-0.11,0.38-0.33,0.54
				c-0.23,0.16-0.52,0.24-0.87,0.24c-0.43,0-0.78-0.08-1.03-0.23c-0.25-0.16-0.46-0.39-0.65-0.71c-0.08-0.16-0.18-0.29-0.28-0.38
				s-0.24-0.13-0.42-0.13c-0.21,0-0.39,0.07-0.52,0.2c-0.14,0.14-0.21,0.31-0.21,0.5c0,0.29,0.11,0.58,0.32,0.87
				c0.22,0.29,0.55,0.529,1,0.729c0.45,0.19,0.99,0.29,1.62,0.29c0.66,0,1.22-0.09,1.68-0.27c0.47-0.181,0.82-0.44,1.05-0.79
				c0.24-0.34,0.35-0.761,0.35-1.24C190.179,479.485,190.099,479.195,189.919,478.945z"/>
			<path style="fill:#9C9C9C;" d="M192.599,475.226c-0.17-0.18-0.38-0.27-0.64-0.27c-0.26,0-0.47,0.09-0.63,0.27
				c-0.16,0.17-0.24,0.43-0.24,0.78v5.029c0,0.341,0.08,0.601,0.24,0.79c0.16,0.181,0.37,0.28,0.63,0.28c0.26,0,0.47-0.09,0.64-0.27
				c0.17-0.181,0.25-0.45,0.25-0.801v-5.079C192.849,475.646,192.769,475.396,192.599,475.226z M192.579,472.636
				c-0.17-0.14-0.37-0.22-0.6-0.22c-0.24,0-0.44,0.08-0.62,0.25c-0.18,0.159-0.27,0.359-0.27,0.609c0,0.28,0.09,0.49,0.26,0.641
				c0.18,0.149,0.39,0.22,0.63,0.22c0.24,0,0.44-0.07,0.61-0.22c0.17-0.16,0.26-0.37,0.26-0.641
				C192.849,472.996,192.759,472.785,192.579,472.636z"/>
			<path style="fill:#9C9C9C;" d="M200.379,475.285c-0.11-0.22-0.34-0.329-0.68-0.329c-0.23,0-0.43,0.09-0.58,0.25
				c-0.15,0.17-0.22,0.409-0.22,0.71v0.239c-0.31-0.409-0.65-0.71-1.02-0.9c-0.36-0.19-0.79-0.29-1.29-0.29
				c-0.42,0-0.8,0.08-1.15,0.229c-0.35,0.141-0.65,0.36-0.92,0.66c-0.26,0.29-0.47,0.65-0.61,1.07c-0.15,0.43-0.22,0.899-0.22,1.43
				c0,0.71,0.12,1.33,0.36,1.87c0.23,0.54,0.57,0.96,1.01,1.26c0.44,0.311,0.95,0.46,1.54,0.46c0.49,0,0.91-0.1,1.27-0.3
				c0.35-0.2,0.66-0.49,0.93-0.86c-0.01,0.57-0.02,0.99-0.04,1.25c-0.01,0.261-0.07,0.5-0.17,0.73c-0.1,0.23-0.28,0.4-0.53,0.53
				c-0.25,0.13-0.6,0.189-1.06,0.189c-0.22,0-0.42-0.02-0.59-0.06c-0.17-0.04-0.32-0.101-0.44-0.19c-0.12-0.08-0.24-0.18-0.34-0.3
				c-0.1-0.12-0.2-0.24-0.29-0.349c-0.19-0.23-0.42-0.34-0.68-0.34c-0.2,0-0.38,0.069-0.52,0.199c-0.15,0.141-0.22,0.31-0.22,0.53
				c0,0.28,0.13,0.55,0.38,0.82c0.26,0.269,0.63,0.489,1.1,0.66c0.48,0.17,1.02,0.25,1.63,0.25c0.66,0,1.21-0.06,1.65-0.2
				c0.45-0.13,0.81-0.33,1.08-0.61c0.28-0.27,0.48-0.62,0.6-1.04c0.12-0.42,0.19-0.92,0.19-1.51v-5.1
				C200.549,475.825,200.489,475.506,200.379,475.285z M198.589,479.695c-0.16,0.31-0.37,0.551-0.63,0.7
				c-0.26,0.16-0.54,0.24-0.83,0.24c-0.49,0-0.9-0.18-1.21-0.55c-0.31-0.36-0.46-0.901-0.46-1.61c0-0.71,0.15-1.25,0.45-1.63
				c0.3-0.38,0.7-0.58,1.21-0.58c0.51,0,0.93,0.2,1.24,0.6c0.32,0.4,0.48,0.96,0.48,1.681
				C198.839,478.996,198.749,479.376,198.589,479.695z"/>
			<path style="fill:#9C9C9C;" d="M207.899,476.806c-0.03-0.24-0.11-0.48-0.22-0.69c-0.18-0.369-0.45-0.649-0.82-0.859
				c-0.36-0.2-0.78-0.3-1.24-0.3c-0.48,0-0.9,0.1-1.27,0.29c-0.1,0.05-0.19,0.109-0.29,0.18c-0.25,0.18-0.49,0.42-0.72,0.72v-0.22
				c0-0.21-0.04-0.391-0.11-0.53c-0.08-0.149-0.18-0.26-0.3-0.33c-0.13-0.069-0.27-0.109-0.42-0.109c-0.25,0-0.45,0.079-0.6,0.25
				c-0.15,0.159-0.22,0.409-0.22,0.75v5.079c0,0.341,0.08,0.601,0.25,0.79c0.16,0.181,0.37,0.28,0.62,0.28
				c0.26,0,0.48-0.09,0.64-0.27c0.17-0.181,0.25-0.45,0.25-0.801v-2.199c0-0.721,0.04-1.21,0.13-1.471
				c0.12-0.33,0.31-0.58,0.56-0.77c0.26-0.19,0.55-0.28,0.86-0.28c0.48,0,0.8,0.151,0.96,0.46c0.16,0.31,0.24,0.75,0.24,1.33v2.93
				c0,0.341,0.09,0.601,0.25,0.79c0.16,0.181,0.37,0.28,0.64,0.28c0.25,0,0.46-0.09,0.62-0.27c0.17-0.181,0.25-0.45,0.25-0.801
				v-3.27C207.959,477.376,207.939,477.056,207.899,476.806z"/>
			<path style="fill:#9C9C9C;" d="M214.769,479.685c-0.17,0-0.29,0.04-0.38,0.12c-0.22,0.2-0.4,0.37-0.54,0.49
				c-0.14,0.12-0.29,0.23-0.45,0.34c-0.16,0.1-0.33,0.18-0.5,0.229c-0.17,0.051-0.35,0.07-0.55,0.07h-0.01c-0.01,0-0.01,0-0.02,0
				c-0.31,0-0.6-0.08-0.86-0.229c-0.26-0.15-0.47-0.381-0.62-0.69c-0.03-0.06-0.06-0.11-0.08-0.17v-0.01
				c-0.11-0.261-0.16-0.56-0.17-0.87h3.44c0.46,0,0.82-0.07,1.07-0.2c0.25-0.13,0.38-0.42,0.38-0.86c0-0.479-0.12-0.939-0.37-1.4
				c-0.24-0.46-0.61-0.84-1.1-1.13c-0.49-0.29-1.08-0.431-1.77-0.431c-0.53,0-1.01,0.08-1.441,0.25c-0.43,0.17-0.8,0.42-1.09,0.73
				c-0.3,0.32-0.53,0.7-0.68,1.149c-0.15,0.44-0.23,0.921-0.23,1.44c0,1.1,0.31,1.98,0.941,2.62c0.62,0.64,1.5,0.97,2.63,0.97
				c0.49,0,0.93-0.07,1.31-0.2c0.01,0,0.03-0.01,0.04-0.01c0.36-0.13,0.66-0.29,0.91-0.47c0.25-0.2,0.43-0.4,0.56-0.611
				c0.12-0.22,0.19-0.399,0.19-0.56c0-0.181-0.06-0.32-0.17-0.42C215.099,479.735,214.949,479.685,214.769,479.685z
				 M211.109,476.615c0.28-0.3,0.64-0.449,1.07-0.449c0.46,0,0.83,0.149,1.11,0.449c0.29,0.301,0.45,0.75,0.49,1.351h-3.19
				C210.649,477.376,210.819,476.926,211.109,476.615z"/>
			<path style="fill:#9C9C9C;" d="M222.639,472.596c-0.14-0.17-0.35-0.25-0.61-0.25c-0.27,0-0.48,0.09-0.62,0.27
				c-0.14,0.19-0.22,0.46-0.22,0.82v2.6c-0.33-0.359-0.66-0.63-1.01-0.809c-0.35-0.17-0.78-0.26-1.28-0.26
				c-0.88,0-1.58,0.31-2.12,0.92c-0.54,0.62-0.81,1.47-0.81,2.57c0,0.52,0.07,1,0.21,1.449c0.13,0.45,0.33,0.841,0.59,1.17
				c0.26,0.33,0.57,0.58,0.93,0.761c0.36,0.18,0.75,0.27,1.17,0.27c0.32,0,0.61-0.05,0.88-0.14c0.27-0.08,0.52-0.21,0.75-0.38
				c0.23-0.17,0.46-0.391,0.69-0.66v0.17c0,0.32,0.08,0.57,0.24,0.75c0.16,0.17,0.35,0.26,0.6,0.26c0.24,0,0.44-0.09,0.59-0.25
				c0.16-0.17,0.24-0.42,0.24-0.76v-7.75C222.859,473.016,222.779,472.766,222.639,472.596z M220.869,479.766
				c-0.15,0.33-0.36,0.58-0.61,0.74c-0.26,0.16-0.54,0.24-0.85,0.24c-0.3,0-0.58-0.091-0.84-0.261c-0.26-0.17-0.46-0.42-0.61-0.75
				c-0.15-0.34-0.22-0.739-0.22-1.22c0-0.45,0.07-0.85,0.21-1.19c0.14-0.34,0.33-0.6,0.59-0.779c0.25-0.181,0.54-0.28,0.86-0.28
				c0.31,0,0.59,0.09,0.85,0.27c0.26,0.181,0.47,0.441,0.62,0.771c0.15,0.34,0.23,0.74,0.23,1.21
				C221.099,479.016,221.019,479.426,220.869,479.766z"/>
			<path style="fill:#9C9C9C;" d="M233.219,476.586c-0.24-0.521-0.58-0.92-1.02-1.2c-0.44-0.28-0.95-0.42-1.54-0.42
				c-0.5,0-0.93,0.099-1.27,0.28c-0.35,0.18-0.68,0.439-1.01,0.789v-2.689c0-0.32-0.08-0.57-0.22-0.74
				c-0.15-0.18-0.36-0.26-0.63-0.26c-0.25,0-0.45,0.09-0.6,0.27c-0.14,0.181-0.21,0.45-0.21,0.811v7.67c0,0.33,0.07,0.58,0.22,0.75
				s0.34,0.26,0.59,0.26s0.45-0.09,0.61-0.26c0.16-0.17,0.24-0.42,0.24-0.75v-0.17c0.19,0.22,0.35,0.389,0.46,0.5
				c0.12,0.109,0.26,0.22,0.43,0.33c0.17,0.1,0.37,0.19,0.61,0.25c0.24,0.06,0.49,0.1,0.76,0.1c0.44,0,0.85-0.09,1.22-0.27
				c0.36-0.181,0.68-0.431,0.93-0.761c0.26-0.319,0.46-0.71,0.59-1.149c0.14-0.45,0.2-0.93,0.2-1.47
				C233.579,477.735,233.459,477.115,233.219,476.586z M231.339,480.166c-0.32,0.39-0.7,0.58-1.14,0.58c-0.52,0-0.94-0.19-1.26-0.57
				c-0.32-0.37-0.48-0.91-0.48-1.611c0-0.47,0.08-0.889,0.23-1.229c0.15-0.351,0.35-0.61,0.61-0.79c0.27-0.181,0.56-0.28,0.9-0.28
				c0.32,0,0.61,0.1,0.85,0.28c0.25,0.18,0.441,0.439,0.57,0.769c0.13,0.34,0.2,0.74,0.2,1.2
				C231.819,479.235,231.659,479.785,231.339,480.166z"/>
			<path style="fill:#9C9C9C;" d="M240.009,475.346c-0.07-0.12-0.16-0.21-0.28-0.28c-0.12-0.069-0.25-0.109-0.38-0.109
				c-0.19,0-0.33,0.029-0.43,0.1c-0.1,0.06-0.2,0.19-0.29,0.37c-0.09,0.189-0.19,0.439-0.3,0.77l-1.41,4.021l-1.49-4.33
				c-0.1-0.3-0.21-0.53-0.34-0.69c-0.13-0.16-0.32-0.239-0.57-0.239c-0.15,0-0.29,0.04-0.42,0.119c-0.14,0.07-0.25,0.181-0.32,0.311
				c-0.08,0.12-0.12,0.26-0.12,0.41c0,0.149,0.07,0.37,0.2,0.689l2.16,5.44l-0.16,0.399c-0.12,0.28-0.22,0.5-0.32,0.65
				c-0.09,0.15-0.19,0.25-0.31,0.309c-0.11,0.061-0.27,0.091-0.47,0.091c-0.09,0-0.18-0.011-0.29-0.04
				c-0.09-0.021-0.19-0.04-0.28-0.04c-0.24,0-0.42,0.06-0.54,0.17c-0.13,0.109-0.19,0.26-0.19,0.46c0,0.3,0.13,0.5,0.39,0.62
				c0.26,0.109,0.64,0.16,1.16,0.16c0.52,0,0.94-0.08,1.25-0.24c0.32-0.16,0.57-0.391,0.75-0.69c0.19-0.3,0.39-0.71,0.58-1.24l2.3-6
				c0.05-0.159,0.1-0.309,0.14-0.46c0.04-0.149,0.06-0.27,0.08-0.35C240.109,475.596,240.079,475.466,240.009,475.346z"/>
		</g>
		<g>
			<path style="fill:#9C9C9C;" d="M261.319,475.108h0.419v-0.527c0-0.552,0.067-0.987,0.207-1.313
				c0.139-0.324,0.377-0.56,0.71-0.708c0.332-0.147,0.788-0.221,1.367-0.221c1.029,0,1.54,0.249,1.54,0.755
				c0,0.162-0.054,0.302-0.163,0.417c-0.105,0.115-0.232,0.174-0.378,0.174c-0.067,0-0.189-0.013-0.357-0.04
				c-0.161-0.022-0.307-0.038-0.422-0.038c-0.317,0-0.52,0.096-0.614,0.281c-0.086,0.187-0.132,0.453-0.132,0.803v0.418h0.429
				c0.672,0,1.004,0.201,1.004,0.607c0,0.284-0.086,0.468-0.267,0.545c-0.177,0.078-0.423,0.116-0.737,0.116h-0.429v4.656
				c0,0.347-0.082,0.61-0.25,0.792c-0.164,0.185-0.376,0.275-0.639,0.275c-0.249,0-0.455-0.091-0.622-0.275
				c-0.166-0.182-0.247-0.445-0.247-0.792v-4.656h-0.484c-0.263,0-0.462-0.057-0.605-0.178c-0.142-0.115-0.213-0.271-0.213-0.459
				C260.435,475.318,260.73,475.108,261.319,475.108L261.319,475.108z"/>
			<path style="fill:#9C9C9C;" d="M267.072,479.565v1.469c0,0.355-0.09,0.623-0.253,0.8c-0.168,0.18-0.379,0.268-0.636,0.268
				c-0.259,0-0.466-0.089-0.628-0.272c-0.16-0.179-0.244-0.444-0.244-0.796v-4.895c0-0.79,0.284-1.186,0.854-1.186
				c0.294,0,0.503,0.092,0.633,0.276c0.128,0.186,0.199,0.457,0.215,0.819c0.208-0.362,0.423-0.634,0.643-0.819
				c0.225-0.184,0.517-0.276,0.888-0.276c0.372,0,0.727,0.092,1.074,0.276c0.349,0.186,0.522,0.432,0.522,0.735
				c0,0.214-0.075,0.394-0.221,0.53c-0.149,0.142-0.308,0.211-0.478,0.211c-0.067,0-0.225-0.043-0.47-0.122
				c-0.247-0.077-0.467-0.117-0.652-0.117c-0.258,0-0.47,0.069-0.632,0.202c-0.164,0.139-0.291,0.337-0.382,0.601
				c-0.088,0.268-0.148,0.587-0.185,0.952C267.088,478.589,267.072,479.037,267.072,479.565L267.072,479.565z"/>
			<path style="fill:#9C9C9C;" d="M275.889,479.685c-0.16,0-0.29,0.04-0.38,0.12c-0.22,0.2-0.399,0.37-0.54,0.479
				c-0.14,0.131-0.279,0.24-0.449,0.341c-0.16,0.109-0.33,0.189-0.5,0.229c-0.181,0.061-0.37,0.08-0.58,0.08
				c-0.311,0-0.601-0.08-0.86-0.229c-0.26-0.16-0.47-0.391-0.63-0.69c-0.15-0.3-0.23-0.66-0.24-1.06h3.44
				c0.46,0,0.819-0.06,1.069-0.19c0.25-0.14,0.38-0.42,0.38-0.86c0-0.479-0.12-0.939-0.37-1.409c-0.239-0.461-0.609-0.83-1.1-1.12
				c-0.49-0.29-1.08-0.431-1.77-0.431c-0.53,0-1.011,0.08-1.44,0.25c-0.43,0.17-0.8,0.41-1.09,0.73c-0.3,0.32-0.53,0.7-0.68,1.139
				c-0.16,0.45-0.23,0.931-0.23,1.45c0,1.1,0.31,1.98,0.94,2.62c0.619,0.64,1.5,0.96,2.63,0.96c0.489,0,0.93-0.061,1.31-0.19
				c0.38-0.13,0.7-0.29,0.95-0.479c0.25-0.2,0.441-0.4,0.57-0.62c0.12-0.21,0.18-0.39,0.18-0.55c0-0.181-0.059-0.32-0.17-0.42
				C276.219,479.735,276.069,479.685,275.889,479.685z M272.228,476.615c0.28-0.3,0.641-0.449,1.07-0.449
				c0.471,0,0.83,0.149,1.12,0.449c0.28,0.29,0.44,0.74,0.48,1.341h-3.19C271.77,477.365,271.94,476.926,272.228,476.615z"/>
			<path style="fill:#9C9C9C;" d="M283.199,479.685c-0.16,0-0.29,0.04-0.38,0.12c-0.221,0.2-0.4,0.37-0.54,0.479
				c-0.141,0.131-0.28,0.24-0.45,0.341c-0.16,0.109-0.33,0.189-0.51,0.229c-0.17,0.061-0.36,0.08-0.57,0.08
				c-0.309,0-0.6-0.08-0.86-0.229c-0.26-0.16-0.47-0.391-0.619-0.69c-0.16-0.3-0.24-0.66-0.25-1.06h3.44c0.46,0,0.82-0.06,1.07-0.19
				c0.25-0.14,0.38-0.42,0.38-0.86c0-0.479-0.12-0.939-0.37-1.409c-0.24-0.461-0.61-0.83-1.1-1.12c-0.5-0.29-1.08-0.431-1.771-0.431
				c-0.53,0-1.01,0.08-1.44,0.25c-0.439,0.17-0.8,0.41-1.09,0.73c-0.3,0.32-0.529,0.7-0.68,1.139c-0.16,0.45-0.24,0.931-0.24,1.45
				c0,1.1,0.32,1.98,0.95,2.62c0.62,0.64,1.5,0.96,2.63,0.96c0.49,0,0.93-0.061,1.311-0.19c0.38-0.13,0.699-0.29,0.949-0.479
				c0.25-0.2,0.44-0.4,0.561-0.62c0.13-0.21,0.18-0.39,0.18-0.55c0-0.181-0.05-0.32-0.16-0.42
				C283.529,479.735,283.379,479.685,283.199,479.685z M279.529,476.615c0.29-0.3,0.649-0.449,1.08-0.449
				c0.46,0,0.83,0.149,1.119,0.449c0.28,0.29,0.44,0.74,0.481,1.341h-3.19C279.079,477.365,279.249,476.926,279.529,476.615z"/>
			<path style="fill:#9C9C9C;" d="M291.509,478.306c-0.02-0.65-0.149-1.21-0.38-1.7c-0.27-0.53-0.63-0.939-1.08-1.22
				c-0.46-0.28-0.96-0.42-1.5-0.42c-0.45,0-0.85,0.099-1.2,0.29c-0.359,0.19-0.71,0.49-1.04,0.9v-0.21
				c0-0.33-0.069-0.569-0.229-0.739c-0.16-0.171-0.36-0.25-0.61-0.25s-0.449,0.079-0.6,0.239c-0.15,0.17-0.22,0.42-0.22,0.761v7.579
				c0,0.391,0.06,0.671,0.159,0.881c0.11,0.189,0.33,0.29,0.66,0.29c0.56,0,0.84-0.391,0.84-1.16v-2.63
				c0.181,0.22,0.36,0.409,0.551,0.569c0.14,0.12,0.279,0.221,0.43,0.311c0.34,0.2,0.76,0.3,1.26,0.3c0.42,0,0.811-0.08,1.17-0.24
				c0.37-0.17,0.681-0.41,0.95-0.71c0.26-0.31,0.47-0.69,0.63-1.14c0.15-0.45,0.221-0.95,0.221-1.49
				C291.52,478.445,291.52,478.376,291.509,478.306z M289.529,479.726c-0.15,0.34-0.34,0.59-0.601,0.76
				c-0.239,0.17-0.52,0.261-0.81,0.261c-0.061,0-0.12,0-0.17-0.02c-0.42-0.03-0.77-0.23-1.06-0.57c-0.33-0.38-0.489-0.93-0.489-1.63
				c0-0.74,0.159-1.3,0.5-1.69c0.329-0.38,0.739-0.57,1.22-0.57c0.31,0,0.59,0.09,0.84,0.27c0.25,0.181,0.44,0.431,0.58,0.771
				c0.15,0.33,0.22,0.729,0.22,1.19c0,0.43-0.06,0.8-0.189,1.109C289.559,479.646,289.549,479.685,289.529,479.726z"/>
			<path style="fill:#9C9C9C;" d="M293.909,475.216c-0.17-0.181-0.38-0.26-0.64-0.26c-0.25,0-0.461,0.079-0.62,0.26
				c-0.16,0.18-0.25,0.439-0.25,0.79v5.029c0,0.341,0.09,0.601,0.25,0.79c0.159,0.181,0.37,0.271,0.62,0.271
				c0.26,0,0.47-0.08,0.64-0.271c0.17-0.18,0.25-0.439,0.25-0.79v-5.079C294.159,475.636,294.079,475.396,293.909,475.216z
				 M293.899,472.636c-0.181-0.15-0.38-0.22-0.61-0.22c-0.23,0-0.44,0.08-0.62,0.239c-0.18,0.16-0.27,0.37-0.27,0.62
				c0,0.27,0.09,0.48,0.27,0.63c0.17,0.15,0.38,0.23,0.62,0.23c0.24,0,0.439-0.08,0.62-0.23c0.17-0.15,0.25-0.359,0.25-0.63
				C294.159,472.996,294.069,472.776,293.899,472.636z"/>
			<path style="fill:#9C9C9C;" d="M299.827,481.298l-1.548-2.552l-0.954,0.9v1.399c0,0.339-0.09,0.598-0.269,0.779
				c-0.175,0.185-0.384,0.275-0.614,0.275c-0.271,0-0.484-0.089-0.638-0.272c-0.153-0.179-0.232-0.444-0.232-0.796v-7.498
				c0-0.388,0.077-0.684,0.224-0.89c0.151-0.207,0.369-0.307,0.647-0.307c0.27,0,0.483,0.093,0.643,0.279
				c0.158,0.183,0.239,0.456,0.239,0.814v4.265l1.977-2.075c0.245-0.255,0.429-0.435,0.561-0.527
				c0.128-0.095,0.283-0.142,0.467-0.142c0.221,0,0.402,0.07,0.553,0.209c0.143,0.14,0.217,0.316,0.217,0.525
				c0,0.257-0.239,0.602-0.715,1.031l-0.933,0.855l1.802,2.835c0.131,0.213,0.229,0.368,0.287,0.479
				c0.058,0.107,0.088,0.217,0.088,0.313c0,0.28-0.077,0.498-0.23,0.661c-0.152,0.161-0.354,0.24-0.601,0.24
				c-0.214,0-0.382-0.055-0.497-0.174C300.185,481.81,300.024,481.6,299.827,481.298L299.827,481.298z"/>
			<path style="fill:#9C9C9C;" d="M303.647,482.101c-0.265,0-0.492-0.086-0.687-0.258c-0.192-0.169-0.291-0.411-0.291-0.722
				c0-0.262,0.094-0.487,0.278-0.675c0.186-0.189,0.412-0.283,0.684-0.283c0.269,0,0.498,0.094,0.692,0.279
				c0.189,0.186,0.286,0.414,0.286,0.679c0,0.307-0.097,0.547-0.286,0.718C304.129,482.015,303.903,482.101,303.647,482.101
				L303.647,482.101z"/>
			<path style="fill:#9C9C9C;" d="M312.389,479.925c0,0.218-0.065,0.453-0.197,0.701c-0.13,0.251-0.331,0.486-0.601,0.712
				c-0.268,0.225-0.604,0.408-1.013,0.544c-0.407,0.137-0.868,0.208-1.376,0.208c-1.089,0-1.938-0.318-2.547-0.949
				c-0.607-0.635-0.912-1.484-0.912-2.549c0-0.723,0.138-1.359,0.419-1.914c0.276-0.552,0.681-0.98,1.208-1.283
				c0.527-0.304,1.162-0.454,1.894-0.454c0.456,0,0.873,0.066,1.255,0.2c0.38,0.132,0.7,0.306,0.966,0.515
				c0.262,0.213,0.465,0.436,0.603,0.672c0.14,0.238,0.208,0.462,0.208,0.669c0,0.209-0.077,0.388-0.232,0.534
				c-0.159,0.146-0.35,0.22-0.568,0.22c-0.148,0-0.27-0.039-0.367-0.113c-0.097-0.076-0.206-0.196-0.324-0.367
				c-0.215-0.324-0.438-0.57-0.675-0.731c-0.232-0.164-0.528-0.245-0.89-0.245c-0.517,0-0.938,0.202-1.257,0.608
				c-0.316,0.403-0.477,0.962-0.477,1.663c0,0.331,0.043,0.637,0.124,0.913c0.079,0.276,0.197,0.513,0.352,0.708
				c0.156,0.195,0.342,0.342,0.561,0.444c0.22,0.104,0.461,0.152,0.721,0.152c0.353,0,0.655-0.081,0.905-0.244
				c0.255-0.163,0.477-0.411,0.669-0.747c0.107-0.197,0.222-0.351,0.345-0.463c0.124-0.111,0.277-0.169,0.458-0.169
				c0.215,0,0.393,0.083,0.533,0.245C312.316,479.566,312.389,479.742,312.389,479.925L312.389,479.925z"/>
			<path style="fill:#9C9C9C;" d="M319.728,477.075c-0.159-0.43-0.39-0.81-0.699-1.13c-0.31-0.319-0.681-0.56-1.11-0.729
				c-0.44-0.181-0.92-0.26-1.45-0.26c-0.529,0-1.01,0.079-1.44,0.25c-0.431,0.17-0.801,0.409-1.11,0.729
				c-0.3,0.311-0.54,0.691-0.7,1.13c-0.16,0.44-0.24,0.931-0.24,1.46c0,0.53,0.08,1.01,0.231,1.45c0.17,0.43,0.4,0.809,0.72,1.13
				c0.3,0.32,0.681,0.57,1.101,0.74s0.899,0.26,1.44,0.26c0.53,0,1.01-0.09,1.45-0.26c0.42-0.17,0.79-0.41,1.101-0.73
				c0.31-0.319,0.55-0.699,0.709-1.14c0.16-0.441,0.24-0.93,0.24-1.45C319.969,477.996,319.889,477.516,319.728,477.075z
				 M317.739,480.185c-0.32,0.41-0.74,0.611-1.27,0.611c-0.359,0-0.66-0.09-0.92-0.27c-0.26-0.19-0.46-0.45-0.6-0.8
				c-0.141-0.34-0.21-0.74-0.21-1.2c0-0.46,0.069-0.87,0.21-1.22c0.14-0.34,0.34-0.61,0.609-0.79c0.261-0.17,0.561-0.26,0.91-0.26
				c0.53,0,0.95,0.2,1.27,0.6c0.31,0.4,0.47,0.96,0.47,1.67C318.209,479.235,318.049,479.785,317.739,480.185z"/>
			<path style="fill:#9C9C9C;" d="M326.677,478.657v2.336c0,0.371-0.082,0.645-0.251,0.832c-0.169,0.185-0.387,0.276-0.662,0.276
				c-0.267,0-0.484-0.092-0.645-0.276c-0.168-0.188-0.252-0.461-0.252-0.832v-2.8c0-0.442-0.015-0.787-0.043-1.033
				c-0.031-0.239-0.114-0.443-0.246-0.598c-0.133-0.16-0.345-0.238-0.631-0.238c-0.576,0-0.953,0.196-1.136,0.597
				c-0.182,0.391-0.275,0.958-0.275,1.699v2.373c0,0.364-0.083,0.642-0.245,0.829c-0.169,0.186-0.385,0.279-0.654,0.279
				c-0.268,0-0.485-0.094-0.655-0.279c-0.17-0.188-0.255-0.465-0.255-0.829v-5.028c0-0.331,0.076-0.583,0.228-0.753
				c0.155-0.174,0.356-0.259,0.603-0.259c0.242,0,0.441,0.084,0.604,0.241c0.16,0.161,0.24,0.384,0.24,0.667v0.166
				c0.308-0.362,0.634-0.631,0.979-0.8c0.351-0.177,0.733-0.262,1.161-0.262c0.441,0,0.82,0.089,1.137,0.264
				c0.318,0.177,0.579,0.444,0.787,0.798c0.298-0.358,0.616-0.625,0.955-0.8c0.339-0.175,0.714-0.262,1.127-0.262
				c0.478,0,0.896,0.097,1.242,0.284c0.346,0.189,0.605,0.46,0.778,0.81c0.149,0.32,0.224,0.82,0.224,1.503v3.431
				c0,0.371-0.083,0.645-0.249,0.832c-0.167,0.185-0.39,0.276-0.664,0.276c-0.267,0-0.483-0.094-0.653-0.279
				c-0.17-0.188-0.255-0.465-0.255-0.829v-2.956c0-0.378-0.017-0.68-0.047-0.906c-0.032-0.228-0.12-0.421-0.26-0.574
				c-0.144-0.154-0.359-0.232-0.645-0.232c-0.232,0-0.452,0.072-0.66,0.208c-0.208,0.135-0.371,0.323-0.488,0.551
				C326.743,477.38,326.677,477.905,326.677,478.657L326.677,478.657z"/>
		</g>
		<g>
			<path style="fill:#9C9C9C;" d="M244.872,478.103c-0.001-0.003-0.001-0.006-0.001-0.012
				C244.871,478.097,244.871,478.1,244.872,478.103z"/>
			<path style="fill:#9C9C9C;" d="M244.961,478.665c0.001,0,0.001,0,0.002,0c-0.034-0.16-0.06-0.319-0.081-0.476
				C244.903,478.348,244.929,478.507,244.961,478.665z"/>
			<path style="fill:#9C9C9C;" d="M245.542,480.296c-0.004-0.007-0.007-0.015-0.012-0.022
				C245.535,480.281,245.539,480.289,245.542,480.296z"/>
			<path style="fill:#9C9C9C;" d="M245.487,480.188c-0.015-0.03-0.03-0.061-0.044-0.091
				C245.457,480.128,245.472,480.157,245.487,480.188z"/>
			<path style="fill:#9C9C9C;" d="M245.124,479.293c0.086,0.272,0.19,0.534,0.31,0.785c-0.122-0.256-0.224-0.52-0.308-0.785
				C245.126,479.293,245.125,479.293,245.124,479.293z"/>
			<path style="fill:#9C9C9C;" d="M251.675,471.369c0.34,0,0.59,0.026,0.878,0.075l0.081-0.517c0,0-0.794-0.244-1.837-0.159
				l-0.082-0.281c0.324-0.068,0.567-0.357,0.567-0.701c0-0.394-0.321-0.714-0.716-0.714c-0.396,0-0.716,0.319-0.716,0.714
				c0,0.345,0.243,0.633,0.567,0.701l0.09,0.314c-1.107,0.152-1.989,0.585-1.989,0.585l0.156,0.478
				c0.67-0.224,1.251-0.358,1.778-0.416C250.97,471.393,251.358,471.369,251.675,471.369z"/>
			<path style="fill:#9C9C9C;" d="M245.529,473.983l0.004-0.005c0.026-0.034,0.051-0.065,0.077-0.097l-0.212-0.153l-0.331-0.241
				c-0.019,0.025-0.539,0.504-0.95,1.388c-0.018-0.027-0.038-0.055-0.061-0.081c-0.123-0.134-0.295-0.202-0.514-0.198
				c-0.003,0-0.006,0-0.01,0c-0.135,0-0.228-0.046-0.289-0.101c0.061-0.076,0.097-0.173,0.097-0.28c0-0.249-0.203-0.453-0.454-0.453
				c-0.249,0-0.453,0.204-0.453,0.453c0,0.251,0.204,0.454,0.453,0.454c0.04,0,0.077-0.007,0.113-0.014
				c0.111,0.123,0.288,0.231,0.547,0.225c0.133-0.001,0.231,0.033,0.296,0.105c0.075,0.082,0.101,0.2,0.108,0.29
				c-0.001,0.001-0.001,0.003-0.002,0.003c-0.295,0.807-0.211,1.81-0.211,1.81l0.716,0.028c0.015-0.365,0.067-1.004,0.252-1.512
				C245.064,474.624,245.511,474.01,245.529,473.983z"/>
			<path style="fill:#9C9C9C;" d="M257.909,471.968c-0.249,0-0.453,0.202-0.453,0.453c0,0.039,0.006,0.076,0.016,0.112
				c-0.124,0.112-0.232,0.29-0.229,0.549c0.002,0.134-0.032,0.23-0.104,0.296c-0.058,0.051-0.13,0.078-0.2,0.096
				c-0.533-0.747-1.191-1.203-1.191-1.203l-0.514,0.551c0.389,0.354,0.785,0.797,1.171,1.349c0.267,0.382,0.542,0.875,0.771,1.366
				l0.693-0.33c0,0-0.316-0.783-0.763-1.485c0.077-0.027,0.155-0.069,0.225-0.13c0.136-0.123,0.202-0.296,0.198-0.514
				c-0.001-0.142,0.045-0.236,0.101-0.3c0.077,0.06,0.174,0.098,0.279,0.098c0.252,0,0.454-0.204,0.454-0.454
				C258.363,472.17,258.161,471.968,257.909,471.968z"/>
			<path style="fill:#9C9C9C;" d="M256.108,478.204c-0.955,0.466-2.527,1.08-4.596,1.369c-0.812,0.112-1.599,0.154-2.324,0.154
				c-0.942,0-1.775-0.07-2.414-0.151c-0.73-0.092-1.3-0.204-1.648-0.283c0.084,0.266,0.186,0.529,0.308,0.785
				c0.002,0.007,0.005,0.014,0.008,0.019c0.015,0.029,0.029,0.06,0.044,0.091c0.015,0.029,0.029,0.059,0.044,0.086
				c0.004,0.008,0.008,0.016,0.012,0.022c0.205,0.387,0.452,0.742,0.732,1.05c0.976,1.067,1.97,1.236,1.979,1.237l0.016,0.002
				l0.015,0.005c0.009,0.004,0.89,0.288,2.23,0.288c1.319,0,2.613-0.266,3.845-0.791c0.913-0.467,1.777-1.177,2.205-1.81
				c0.331-0.489,0.57-1.012,0.712-1.555c0.075-0.288,0.135-0.75,0.1-1.236C257.108,477.667,256.684,477.924,256.108,478.204z"/>
			<path style="fill:#9C9C9C;" d="M256.089,474.386c-1.35-1.94-2.819-2.44-3.569-2.561c-0.29-0.05-0.521-0.069-0.841-0.069
				c-0.31,0-0.68,0.02-1.189,0.069c-0.5,0.051-1.06,0.19-1.71,0.41c-0.92,0.3-1.74,0.78-2.39,1.38l-0.02,0.021
				c-0.1,0.09-0.3,0.28-0.53,0.57c-0.03,0.04-0.45,0.63-0.77,1.529c-0.25,0.681-0.24,1.66-0.24,1.67c0,0.23,0.02,0.46,0.04,0.69
				c0,0,0,0,0,0.01c0.01,0.03,0.01,0.05,0.01,0.08c0.02,0.16,0.05,0.32,0.08,0.481c0.48,0.119,3.31,0.779,6.47,0.34
				c1.99-0.28,3.49-0.86,4.41-1.31c0.76-0.359,1.25-0.699,1.44-0.84C257.089,476.166,256.569,475.065,256.089,474.386z
				 M248.569,477.526c-1.06,0-1.91-0.85-1.91-1.91c0-1.05,0.85-1.899,1.91-1.899c1.05,0,1.91,0.849,1.91,1.899
				C250.479,476.676,249.619,477.526,248.569,477.526z M254.149,476.126c-0.65,0-1.181-0.53-1.181-1.191
				c0-0.65,0.53-1.18,1.181-1.18c0.649,0,1.18,0.529,1.18,1.18C255.329,475.596,254.799,476.126,254.149,476.126z"/>
		</g>
	</g>
</g>
</svg>
