<svg xmlns="http://www.w3.org/2000/svg" xmlns:xlink="http://www.w3.org/1999/xlink" version="1.1" width="256" height="256" viewBox="0 0 256 256" xml:space="preserve">

<defs>
</defs>
<g style="stroke: none; stroke-width: 0; stroke-dasharray: none; stroke-linecap: butt; stroke-linejoin: miter; stroke-miterlimit: 10; fill: none; fill-rule: nonzero; opacity: 1;" transform="translate(1.4065934065934016 1.4065934065934016) scale(2.81 2.81)" >
	<path d="M 9.61 73.637 v 12.986 c 0 1.313 1.064 2.377 2.377 2.377 h 10.482 c 1.313 0 2.377 -1.064 2.377 -2.377 V 73.637 H 9.61 z" style="stroke: none; stroke-width: 1; stroke-dasharray: none; stroke-linecap: butt; stroke-linejoin: miter; stroke-miterlimit: 10; fill: rgb(47,72,89); fill-rule: nonzero; opacity: 1;" transform=" matrix(1 0 0 1 0 0) " stroke-linecap="round" />
	<path d="M 65.155 73.637 v 12.986 c 0 1.313 1.064 2.377 2.377 2.377 h 10.482 c 1.313 0 2.377 -1.064 2.377 -2.377 V 73.637 H 65.155 z" style="stroke: none; stroke-width: 1; stroke-dasharray: none; stroke-linecap: butt; stroke-linejoin: miter; stroke-miterlimit: 10; fill: rgb(47,72,89); fill-rule: nonzero; opacity: 1;" transform=" matrix(1 0 0 1 0 0) " stroke-linecap="round" />
	<path d="M 80.784 73.985 l 0.434 -7.843 c 0.28 -5.067 -1.56 -10.021 -5.08 -13.676 l -4.012 -4.166 l -4.739 -11.839 c -0.692 -1.728 -2.263 -2.963 -4.111 -3.182 c -12.184 -1.44 -24.367 -1.44 -36.551 0 c -1.848 0.219 -3.42 1.454 -4.111 3.182 l -4.739 11.839 l -4.012 4.166 c -3.52 3.655 -5.36 8.61 -5.08 13.676 l 0.434 7.843 c 0.221 3.989 3.52 7.111 7.515 7.111 h 56.537 C 77.264 81.096 80.564 77.974 80.784 73.985 z" style="stroke: none; stroke-width: 1; stroke-dasharray: none; stroke-linecap: butt; stroke-linejoin: miter; stroke-miterlimit: 10; fill: rgb(247,62,62); fill-rule: nonzero; opacity: 1;" transform=" matrix(1 0 0 1 0 0) " stroke-linecap="round" />
	<path d="M 72.126 48.299 l -4.739 -11.839 c -0.692 -1.728 -2.263 -2.963 -4.111 -3.182 c -12.184 -1.44 -24.367 -1.44 -36.551 0 c -1.848 0.219 -3.42 1.454 -4.111 3.182 l -4.739 11.839 l 0 0 C 35.959 47.339 54.042 47.339 72.126 48.299 L 72.126 48.299 z" style="stroke: none; stroke-width: 1; stroke-dasharray: none; stroke-linecap: butt; stroke-linejoin: miter; stroke-miterlimit: 10; fill: rgb(47,72,89); fill-rule: nonzero; opacity: 1;" transform=" matrix(1 0 0 1 0 0) " stroke-linecap="round" />
	<path d="M 72.075 49.295 c -17.964 -0.955 -36.183 -0.955 -54.148 0 l -0.106 -1.998 c 18.036 -0.956 36.325 -0.956 54.36 0 L 72.075 49.295 z" style="stroke: none; stroke-width: 1; stroke-dasharray: none; stroke-linecap: butt; stroke-linejoin: miter; stroke-miterlimit: 10; fill: rgb(0,0,0); fill-rule: nonzero; opacity: 1;" transform=" matrix(1 0 0 1 0 0) " stroke-linecap="round" />
	<path d="M 22.467 90 H 11.984 c -1.862 0 -3.377 -1.515 -3.377 -3.377 V 76.007 c 0 -0.553 0.448 -1 1 -1 s 1 0.447 1 1 v 10.615 c 0 0.759 0.618 1.377 1.377 1.377 h 10.483 c 0.759 0 1.377 -0.618 1.377 -1.377 v -5.527 c 0 -0.553 0.448 -1 1 -1 s 1 0.447 1 1 v 5.527 C 25.845 88.485 24.329 90 22.467 90 z" style="stroke: none; stroke-width: 1; stroke-dasharray: none; stroke-linecap: butt; stroke-linejoin: miter; stroke-miterlimit: 10; fill: rgb(0,0,0); fill-rule: nonzero; opacity: 1;" transform=" matrix(1 0 0 1 0 0) " stroke-linecap="round" />
	<path d="M 78.017 90 H 67.533 c -1.863 0 -3.377 -1.515 -3.377 -3.377 v -5.304 c 0 -0.553 0.447 -1 1 -1 s 1 0.447 1 1 v 5.304 c 0 0.759 0.618 1.377 1.377 1.377 h 10.484 c 0.759 0 1.377 -0.618 1.377 -1.377 V 75.998 c 0 -0.553 0.447 -1 1 -1 s 1 0.447 1 1 v 10.624 C 81.394 88.485 79.879 90 78.017 90 z" style="stroke: none; stroke-width: 1; stroke-dasharray: none; stroke-linecap: butt; stroke-linejoin: miter; stroke-miterlimit: 10; fill: rgb(0,0,0); fill-rule: nonzero; opacity: 1;" transform=" matrix(1 0 0 1 0 0) " stroke-linecap="round" />
	<path d="M 73.271 82.096 H 16.73 c -4.524 0 -8.265 -3.539 -8.515 -8.057 l -0.434 -7.844 c -0.294 -5.327 1.659 -10.585 5.359 -14.426 l 3.876 -4.026 l 4.667 -11.658 c 0.835 -2.086 2.721 -3.543 4.922 -3.804 c 12.206 -1.443 24.583 -1.443 36.788 0 c 2.202 0.261 4.088 1.718 4.923 3.804 l 4.666 11.658 l 3.877 4.026 c 3.7 3.841 5.653 9.1 5.358 14.426 l -0.434 7.844 C 81.536 78.556 77.795 82.096 73.271 82.096 z M 45 33.199 c -6.068 0 -12.134 0.356 -18.16 1.068 c -1.473 0.174 -2.738 1.155 -3.3 2.56 l -4.812 12.021 l -4.148 4.307 c -3.315 3.443 -5.066 8.155 -4.802 12.929 l 0.434 7.843 c 0.191 3.458 3.054 6.168 6.517 6.168 h 56.541 c 3.463 0 6.326 -2.709 6.517 -6.168 l 0.434 -7.844 c 0.264 -4.773 -1.486 -9.484 -4.803 -12.928 l -4.147 -4.307 l -0.073 -0.181 l -4.739 -11.84 c -0.562 -1.405 -1.826 -2.386 -3.3 -2.56 C 57.135 33.555 51.066 33.199 45 33.199 z" style="stroke: none; stroke-width: 1; stroke-dasharray: none; stroke-linecap: butt; stroke-linejoin: miter; stroke-miterlimit: 10; fill: rgb(0,0,0); fill-rule: nonzero; opacity: 1;" transform=" matrix(1 0 0 1 0 0) " stroke-linecap="round" />
	<path d="M 20.995 75.668 H 18 c -0.552 0 -1 -0.447 -1 -1 c 0 -0.553 0.448 -1 1 -1 h 2.994 c 0.552 0 1 0.447 1 1 C 21.995 75.221 21.547 75.668 20.995 75.668 z" style="stroke: none; stroke-width: 1; stroke-dasharray: none; stroke-linecap: butt; stroke-linejoin: miter; stroke-miterlimit: 10; fill: rgb(0,0,0); fill-rule: nonzero; opacity: 1;" transform=" matrix(1 0 0 1 0 0) " stroke-linecap="round" />
	<path d="M 72.006 75.668 H 69 c -0.553 0 -1 -0.447 -1 -1 c 0 -0.553 0.447 -1 1 -1 h 3.006 c 0.553 0 1 0.447 1 1 C 73.006 75.221 72.559 75.668 72.006 75.668 z" style="stroke: none; stroke-width: 1; stroke-dasharray: none; stroke-linecap: butt; stroke-linejoin: miter; stroke-miterlimit: 10; fill: rgb(0,0,0); fill-rule: nonzero; opacity: 1;" transform=" matrix(1 0 0 1 0 0) " stroke-linecap="round" />
	<path d="M 55.362 75.108 H 34.638 c -0.892 0 -1.708 -0.504 -2.107 -1.302 l -0.645 -1.29 c -0.783 -1.566 0.356 -3.409 2.107 -3.409 h 22.014 c 1.751 0 2.89 1.843 2.107 3.409 l -0.645 1.29 C 57.07 74.603 56.255 75.108 55.362 75.108 z" style="stroke: none; stroke-width: 1; stroke-dasharray: none; stroke-linecap: butt; stroke-linejoin: miter; stroke-miterlimit: 10; fill: rgb(47,72,89); fill-rule: nonzero; opacity: 1;" transform=" matrix(1 0 0 1 0 0) " stroke-linecap="round" />
	<path d="M 55.363 76.108 H 34.638 c -1.279 0 -2.429 -0.711 -3.001 -1.855 l -0.645 -1.29 c -0.523 -1.048 -0.469 -2.269 0.147 -3.265 c 0.616 -0.996 1.683 -1.591 2.854 -1.591 h 22.014 c 1.172 0 2.239 0.595 2.855 1.591 c 0.615 0.996 0.67 2.217 0.146 3.265 l -0.645 1.29 C 57.791 75.397 56.641 76.108 55.363 76.108 z M 33.993 70.107 c -0.48 0 -0.9 0.234 -1.152 0.643 c -0.252 0.408 -0.274 0.889 -0.06 1.318 l 0.645 1.29 c 0.231 0.462 0.695 0.749 1.212 0.749 h 20.724 c 0.517 0 0.981 -0.287 1.212 -0.749 l 0.645 -1.29 c 0.215 -0.43 0.193 -0.91 -0.059 -1.318 c -0.253 -0.408 -0.673 -0.643 -1.153 -0.643 H 33.993 z" style="stroke: none; stroke-width: 1; stroke-dasharray: none; stroke-linecap: butt; stroke-linejoin: miter; stroke-miterlimit: 10; fill: rgb(0,0,0); fill-rule: nonzero; opacity: 1;" transform=" matrix(1 0 0 1 0 0) " stroke-linecap="round" />
	<path d="M 17.349 61.269 l 7.802 2.071 c 1.285 0.341 2.18 1.504 2.18 2.834 l 0 0 c 0 1.62 -1.313 2.932 -2.932 2.932 h -7.802 c -1.62 0 -2.932 -1.313 -2.932 -2.932 v -2.071 C 13.664 62.178 15.488 60.776 17.349 61.269 z" style="stroke: none; stroke-width: 1; stroke-dasharray: none; stroke-linecap: butt; stroke-linejoin: miter; stroke-miterlimit: 10; fill: rgb(230,246,255); fill-rule: nonzero; opacity: 1;" transform=" matrix(1 0 0 1 0 0) " stroke-linecap="round" />
	<path d="M 72.652 61.269 L 64.85 63.34 c -1.285 0.341 -2.18 1.504 -2.18 2.834 l 0 0 c 0 1.62 1.313 2.932 2.932 2.932 h 7.802 c 1.62 0 2.932 -1.313 2.932 -2.932 v -2.071 C 76.337 62.178 74.513 60.776 72.652 61.269 z" style="stroke: none; stroke-width: 1; stroke-dasharray: none; stroke-linecap: butt; stroke-linejoin: miter; stroke-miterlimit: 10; fill: rgb(230,246,255); fill-rule: nonzero; opacity: 1;" transform=" matrix(1 0 0 1 0 0) " stroke-linecap="round" />
	<path d="M 24.399 70.107 h -7.803 c -2.168 0 -3.933 -1.765 -3.933 -3.933 v -2.071 c 0 -1.231 0.56 -2.366 1.535 -3.118 c 0.976 -0.75 2.217 -1 3.406 -0.684 l 7.802 2.071 c 1.722 0.458 2.924 2.021 2.924 3.801 C 28.332 68.342 26.567 70.107 24.399 70.107 z M 16.592 62.17 c -0.419 0 -0.83 0.138 -1.173 0.402 c -0.48 0.368 -0.754 0.927 -0.754 1.531 v 2.071 c 0 1.066 0.867 1.933 1.932 1.933 h 7.803 c 1.066 0 1.932 -0.867 1.932 -1.933 c 0 -0.875 -0.591 -1.643 -1.437 -1.867 l -7.802 -2.071 C 16.927 62.192 16.758 62.17 16.592 62.17 z" style="stroke: none; stroke-width: 1; stroke-dasharray: none; stroke-linecap: butt; stroke-linejoin: miter; stroke-miterlimit: 10; fill: rgb(0,0,0); fill-rule: nonzero; opacity: 1;" transform=" matrix(1 0 0 1 0 0) " stroke-linecap="round" />
	<path d="M 73.404 70.107 h -7.802 c -2.168 0 -3.933 -1.765 -3.933 -3.933 c 0 -1.78 1.202 -3.343 2.923 -3.801 l 7.803 -2.071 c 1.189 -0.318 2.431 -0.067 3.407 0.684 c 0.976 0.751 1.535 1.887 1.535 3.118 v 2.071 C 77.337 68.342 75.572 70.107 73.404 70.107 z M 73.409 62.17 c -0.166 0 -0.334 0.022 -0.5 0.066 l -7.803 2.071 c -0.846 0.225 -1.437 0.992 -1.437 1.867 c 0 1.066 0.867 1.933 1.933 1.933 h 7.802 c 1.066 0 1.933 -0.867 1.933 -1.933 v -2.071 c 0 -0.605 -0.275 -1.163 -0.755 -1.531 C 74.239 62.308 73.829 62.17 73.409 62.17 z" style="stroke: none; stroke-width: 1; stroke-dasharray: none; stroke-linecap: butt; stroke-linejoin: miter; stroke-miterlimit: 10; fill: rgb(0,0,0); fill-rule: nonzero; opacity: 1;" transform=" matrix(1 0 0 1 0 0) " stroke-linecap="round" />
	<circle cx="45.003" cy="20.953" r="3.993" style="stroke: none; stroke-width: 1; stroke-dasharray: none; stroke-linecap: butt; stroke-linejoin: miter; stroke-miterlimit: 10; fill: rgb(80,222,255); fill-rule: nonzero; opacity: 1;" transform="  matrix(1 0 0 1 0 0) "/>
	<path d="M 45 25.947 c -2.753 0 -4.993 -2.239 -4.993 -4.993 s 2.239 -4.993 4.993 -4.993 c 2.753 0 4.993 2.24 4.993 4.993 S 47.754 25.947 45 25.947 z M 45 17.962 c -1.65 0 -2.993 1.342 -2.993 2.993 c 0 1.65 1.342 2.993 2.993 2.993 c 1.65 0 2.993 -1.342 2.993 -2.993 C 47.993 19.304 46.65 17.962 45 17.962 z" style="stroke: none; stroke-width: 1; stroke-dasharray: none; stroke-linecap: butt; stroke-linejoin: miter; stroke-miterlimit: 10; fill: rgb(0,0,0); fill-rule: nonzero; opacity: 1;" transform=" matrix(1 0 0 1 0 0) " stroke-linecap="round" />
	<path d="M 53.47 13.484 c -0.256 0 -0.512 -0.098 -0.707 -0.293 c -2.073 -2.073 -4.83 -3.215 -7.763 -3.215 c -2.932 0 -5.689 1.142 -7.763 3.215 c -0.391 0.391 -1.024 0.391 -1.414 0 s -0.391 -1.024 0 -1.414 C 38.275 9.326 41.534 7.976 45 7.976 c 3.467 0 6.726 1.35 9.177 3.801 c 0.391 0.391 0.391 1.024 0 1.414 C 53.982 13.387 53.726 13.484 53.47 13.484 z" style="stroke: none; stroke-width: 1; stroke-dasharray: none; stroke-linecap: butt; stroke-linejoin: miter; stroke-miterlimit: 10; fill: rgb(0,0,0); fill-rule: nonzero; opacity: 1;" transform=" matrix(1 0 0 1 0 0) " stroke-linecap="round" />
	<path d="M 59.117 7.838 c -0.256 0 -0.512 -0.098 -0.707 -0.293 c -7.394 -7.394 -19.425 -7.393 -26.819 0 c -0.391 0.391 -1.024 0.391 -1.414 0 c -0.391 -0.391 -0.391 -1.024 0 -1.414 c 8.173 -8.174 21.473 -8.174 29.648 0 c 0.391 0.391 0.391 1.024 0 1.414 C 59.629 7.74 59.373 7.838 59.117 7.838 z" style="stroke: none; stroke-width: 1; stroke-dasharray: none; stroke-linecap: butt; stroke-linejoin: miter; stroke-miterlimit: 10; fill: rgb(0,0,0); fill-rule: nonzero; opacity: 1;" transform=" matrix(1 0 0 1 0 0) " stroke-linecap="round" />
</g>
</svg>